<svg width="18" height="19" viewBox="0 0 18 19" fill="none" xmlns="http://www.w3.org/2000/svg">
    <circle cx="9.00058" cy="8.96152" r="5.80058" stroke="#777777" stroke-width="1.4"/>
    <ellipse cx="9.00018" cy="8.96501" rx="2.00018" ry="2.00016" fill="#777777"/>
    <path d="M7.72355 0.902684C7.91264 0.362046 8.42281 0 8.99556 0C9.56729 0 10.0768 0.360769 10.2666 0.900046L11.0451 3.11111H6.95117L7.72355 0.902684Z"
          fill="#777777"/>
    <path d="M10.2764 17.0973C10.0874 17.638 9.57719 18 9.00444 18C8.43272 18 7.92322 17.6392 7.73336 17.1L6.9549 14.8889L11.0488 14.8889L10.2764 17.0973Z"
          fill="#777777"/>
    <path d="M1.16659 6.01014C0.794515 5.59384 0.736413 4.98803 1.02218 4.50439C1.30745 4.02158 1.87204 3.76779 2.4263 3.87322L4.80431 4.32554L2.75734 7.78993L1.16659 6.01014Z"
          fill="#777777"/>
    <path d="M16.8334 11.9977C17.2055 12.414 17.2636 13.0198 16.9778 13.5034C16.6926 13.9862 16.128 14.24 15.5737 14.1346L13.1957 13.6823L15.2427 10.2179L16.8334 11.9977Z"
          fill="#777777"/>
    <path d="M2.4451 14.1312C1.89011 14.2379 1.32413 13.9841 1.03837 13.5005C0.753097 13.0177 0.810461 12.413 1.18103 11.9967L2.77092 10.2105L4.81789 13.6749L2.4451 14.1312Z"
          fill="#777777"/>
    <path d="M15.5627 3.86885C16.1177 3.76214 16.6837 4.01587 16.9694 4.49952C17.2547 4.98233 17.1974 5.58699 16.8268 6.0033L15.2369 7.78947L13.1899 4.32509L15.5627 3.86885Z"
          fill="#777777"/>
</svg>
