<svg width="16" height="17" viewBox="0 0 16 17" fill="none" xmlns="http://www.w3.org/2000/svg">
<rect x="11.5" y="8.5" width="1.9999" height="2" rx="0.4" fill="#999999"/>
<rect x="11.5" y="11.5" width="1.9999" height="2" rx="0.4" fill="#999999"/>
<path d="M11.0308 15.5H11.5308V15V3.5C11.5308 2.67157 10.8592 2 10.0308 2H2.5C1.67157 2 1 2.67157 1 3.5V15V15.5H1.5H11.0308Z" stroke="#999999"/>
<rect x="3.12109" y="4.54102" width="2.8" height="2" rx="0.4" fill="#999999"/>
<rect x="3.12109" y="7.75" width="2.8" height="2" rx="0.4" fill="#999999"/>
<rect x="3.12109" y="10.957" width="2.8" height="2" rx="0.4" fill="#999999"/>
<rect x="6.60938" y="4.54102" width="2.8" height="2" rx="0.4" fill="#999999"/>
<rect x="6.60938" y="7.75" width="2.8" height="2" rx="0.4" fill="#999999"/>
<rect x="6.60938" y="10.957" width="2.8" height="2" rx="0.4" fill="#999999"/>
<path d="M12.0312 6.5H11.5312V7V15V15.5H12.0312H14.4999H14.9999V15V7.5C14.9999 6.94772 14.5522 6.5 13.9999 6.5H12.0312Z" stroke="#999999"/>
</svg>
