<svg width="18" height="18" viewBox="0 0 18 18" fill="none" xmlns="http://www.w3.org/2000/svg">
    <path d="M17.0072 3.30131H16.6927C16.6593 3.30131 16.6258 3.30131 16.5957 3.29797C15.6624 3.30131 14.7324 3.30131 13.799 3.30131H10.8853C10.8853 2.86643 10.8853 2.43489 10.8853 2H9.7546C6.83751 2.44158 3.92043 2.86977 1 3.30466C1 7.10155 1 10.8984 1 14.6987C3.90036 15.1336 6.80406 15.5484 9.70442 16H10.8853C10.8853 15.5116 10.8853 15.0232 10.8853 14.5348C12.8557 14.5314 14.8294 14.5415 16.7998 14.5348C16.8131 14.5348 16.8265 14.5348 16.8399 14.5348H17.0105C17.4153 14.5348 17.7431 14.2069 17.7431 13.8022V4.03059C17.7398 3.62915 17.4119 3.30131 17.0072 3.30131Z"
          fill="#1E7145"/>
    <path d="M10.8867 3.7832C12.9775 3.7832 15.0717 3.7832 17.1625 3.7832C17.1625 7.20208 17.1625 10.621 17.1625 14.0365C15.0717 14.0365 12.9775 14.0365 10.8867 14.0365C10.8867 13.712 10.8867 13.3842 10.8867 13.0597C11.3952 13.0597 11.9003 13.0597 12.4088 13.0597C12.4088 12.6817 12.4088 12.3003 12.4088 11.9189C11.9003 11.9189 11.3952 11.9189 10.8867 11.9189C10.8867 11.7015 10.8867 11.484 10.8867 11.2666C11.3952 11.2666 11.9003 11.2666 12.4088 11.2666C12.4088 10.8886 12.4088 10.5072 12.4088 10.1259C11.9003 10.1259 11.3952 10.1259 10.8867 10.1259C10.8867 9.90841 10.8867 9.69097 10.8867 9.47353C11.3952 9.47353 11.9003 9.47353 12.4088 9.47353C12.4088 9.09551 12.4088 8.71415 12.4088 8.33279C11.9003 8.33279 11.3952 8.33279 10.8867 8.33279C10.8867 8.11534 10.8867 7.8979 10.8867 7.68046C11.3952 7.68046 11.9003 7.68046 12.4088 7.68046C12.4088 7.30244 12.4088 6.92108 12.4088 6.53972C11.9003 6.53972 11.3952 6.53972 10.8867 6.53972C10.8867 6.32227 10.8867 6.10483 10.8867 5.88739C11.3952 5.88739 11.9003 5.88739 12.4088 5.88739C12.4088 5.50937 12.4088 5.12801 12.4088 4.74664C11.9003 4.74664 11.3952 4.74664 10.8867 4.74664C10.8867 4.43553 10.8867 4.11104 10.8867 3.7832Z"
          fill="white"/>
    <path d="M13.1562 4.76367C14.0427 4.76367 14.9292 4.76367 15.8191 4.76367C15.8191 5.14169 15.8191 5.52305 15.8191 5.90441C14.9326 5.90441 14.0461 5.90441 13.1562 5.90441C13.1562 5.52305 13.1562 5.14503 13.1562 4.76367Z"
          fill="#1E7145"/>
    <path d="M6.62196 6.2964C7.05015 6.26964 7.48169 6.24622 7.91658 6.22949C7.4081 7.11934 6.89962 8.00918 6.3811 8.89903C6.90296 9.80894 7.43821 10.7155 7.96341 11.6254C7.50511 11.602 7.05015 11.5786 6.59185 11.5518C6.26736 10.8727 5.87596 10.2171 5.64179 9.50787C5.3842 10.1702 5.01288 10.7925 4.71849 11.4414C4.30368 11.4381 3.88552 11.4214 3.4707 11.408C3.95911 10.5884 4.4308 9.76545 4.93594 8.94921C4.50774 8.10954 4.0394 7.28995 3.59782 6.45697C4.01598 6.4369 4.43414 6.41348 4.8523 6.39676C5.13665 7.03236 5.44442 7.66127 5.67859 8.3136C5.92614 7.61778 6.30081 6.96545 6.62196 6.2964Z"
          fill="white"/>
    <path d="M13.1562 6.55859C14.0427 6.55859 14.9292 6.55859 15.8191 6.55859C15.8191 6.93661 15.8191 7.31797 15.8191 7.69934C14.9326 7.69934 14.0461 7.69934 13.1562 7.69934C13.1562 7.32132 13.1562 6.93996 13.1562 6.55859Z"
          fill="#1E7145"/>
    <path d="M13.1562 8.34766C14.0427 8.34766 14.9292 8.34766 15.8191 8.34766C15.8191 8.72567 15.8191 9.10703 15.8191 9.4884C14.9326 9.4884 14.0461 9.4884 13.1562 9.4884C13.1562 9.10703 13.1562 8.72567 13.1562 8.34766Z"
          fill="#1E7145"/>
    <path d="M13.1562 10.1416C14.0427 10.1416 14.9292 10.1416 15.8191 10.1416C15.8191 10.5196 15.8191 10.901 15.8191 11.2823C14.9326 11.2823 14.0461 11.2823 13.1562 11.2823C13.1562 10.901 13.1562 10.5196 13.1562 10.1416Z"
          fill="#1E7145"/>
    <path d="M13.1562 11.9287C14.0427 11.9287 14.9292 11.9287 15.8191 11.9287C15.8191 12.3067 15.8191 12.6881 15.8191 13.0694C14.9326 13.0694 14.0461 13.0694 13.1562 13.0694C13.1562 12.6881 13.1562 12.3101 13.1562 11.9287Z"
          fill="#1E7145"/>
</svg>
