<svg width="16" height="16" viewBox="0 0 16 16" fill="none" xmlns="http://www.w3.org/2000/svg">
    <circle cx="8" cy="8" r="7" stroke="#B4B4B4"/>
    <path fill-rule="evenodd" clip-rule="evenodd"
          d="M10.358 2.02364L8.17997 2.38665C7.77016 2.45495 7.44527 2.76953 7.36379 3.17693L7.16406 4.1756C7.06873 4.65223 7.32994 5.12838 7.78314 5.30409L8.52339 5.5911C8.68112 5.65225 8.82076 5.75243 8.92924 5.88225L10.5206 7.78668C10.8567 8.18883 10.8252 8.7822 10.4486 9.1466L9.58722 9.97996C8.9492 10.5972 9.48931 11.6684 10.365 11.5225C10.4539 11.5077 10.5402 11.4796 10.6208 11.4393L13.3058 10.0968C13.4332 10.0331 13.5456 9.94288 13.6353 9.83224L15.4859 7.55031C15.3305 4.92276 13.8223 2.65913 11.648 1.44604L10.628 1.93797C10.5425 1.9792 10.4516 2.00804 10.358 2.02364Z"
          fill="#B4B4B4"/>
    <path fill-rule="evenodd" clip-rule="evenodd"
          d="M0.505859 7.68356C0.597703 5.46955 1.64937 3.50338 3.25569 2.19023L3.89144 2.10307C4.33811 2.04183 4.77053 2.28706 4.94725 2.70184L5.19332 3.2794C5.37389 3.70322 5.24155 4.19556 4.87284 4.47173L3.90139 5.19937C3.64929 5.3882 3.50089 5.68477 3.50089 5.99974V7.68356C3.50089 8.29539 2.73486 8.5711 2.34495 8.09961L2.21819 7.94632C2.08056 7.77991 1.87587 7.68356 1.65992 7.68356H0.505859Z"
          fill="#B4B4B4"/>
    <path fill-rule="evenodd" clip-rule="evenodd"
          d="M1.74414 12.1398L2.19596 10.5634C2.35916 9.99408 2.97871 9.69053 3.52864 9.9105L4.5128 10.3042C4.8184 10.4264 5.16458 10.3904 5.43852 10.208L6.18335 9.71192C6.89573 9.23746 7.83616 9.81901 7.72994 10.6683L7.58869 11.7978C7.5361 12.2183 7.75426 12.6263 8.13316 12.816L10.3049 13.9037C10.434 13.9683 10.5477 14.0603 10.6379 14.1731L11.1473 14.8098C10.19 15.253 9.12359 15.5004 7.99936 15.5004C7.14976 15.5004 6.33315 15.3591 5.57175 15.0988C5.45897 15.0228 5.3313 14.9702 5.19629 14.945L5.13336 14.9333C3.74411 14.3584 2.5652 13.378 1.74414 12.1398Z"
          fill="#B4B4B4"/>
</svg>
