<svg width="20" height="21" viewBox="0 0 20 21" fill="none" xmlns="http://www.w3.org/2000/svg">
    <path d="M8.39648 6.44727L8.39648 10.4984" stroke="#333333" stroke-width="1.6" stroke-linecap="round"/>
    <path d="M11.4336 11.5117L8.39444 10.4906" stroke="#333333" stroke-width="1.6" stroke-linecap="round"/>
    <path fill-rule="evenodd" clip-rule="evenodd"
          d="M19.3116 7.87396C19.6435 8.2059 19.6435 8.7441 19.3116 9.07604L16.6553 11.7323C16.3234 12.0642 15.7852 12.0642 15.4533 11.7323L12.797 9.07604C12.4651 8.7441 12.4651 8.2059 12.797 7.87396C13.129 7.54201 13.6671 7.54201 13.9991 7.87396L16.0543 9.92917L18.1095 7.87396C18.4415 7.54201 18.9796 7.54201 19.3116 7.87396Z"
          fill="#333333"/>
    <path d="M16.2087 10.0059C16.6996 10.0059 17.1025 9.60674 17.0509 9.11848C16.9076 7.76343 16.4376 6.45852 15.6757 5.31824C14.7486 3.9307 13.4308 2.84924 11.889 2.21063C10.3473 1.57201 8.65079 1.40492 7.01408 1.73048C5.37737 2.05605 3.87395 2.85964 2.69394 4.03965C1.51394 5.21965 0.710343 6.72307 0.38478 8.35979C0.0592177 9.9965 0.226308 11.693 0.864923 13.2348C1.50354 14.7765 2.58499 16.0943 3.97253 17.0214C5.11282 17.7833 6.41773 18.2533 7.77278 18.3966C8.26103 18.4482 8.66016 18.0453 8.66016 17.5544C8.66016 17.0634 8.26039 16.6715 7.77378 16.6061C6.77103 16.4715 5.80804 16.1095 4.96033 15.543C3.86518 14.8113 3.01161 13.7712 2.50757 12.5543C2.00353 11.3375 1.87165 9.99847 2.1286 8.70665C2.38556 7.41483 3.01982 6.22822 3.95117 5.29687C4.88252 4.36552 6.06913 3.73127 7.36095 3.47431C8.65277 3.21735 9.99177 3.34923 11.2086 3.85327C12.4255 4.35732 13.4656 5.21088 14.1973 6.30603C14.7638 7.15374 15.1258 8.11673 15.2604 9.11948C15.3258 9.60609 15.7177 10.0059 16.2087 10.0059Z"
          fill="#333333"/>
</svg>
