<svg width="20" height="20" viewBox="0 0 20 20" fill="none" xmlns="http://www.w3.org/2000/svg">
    <path d="M16.55 8.17095C16.55 8.98613 16.1716 10.0957 15.5146 11.3691C14.869 12.6203 14.0005 13.9437 13.1203 15.1603C12.242 16.3745 11.3621 17.4685 10.7011 18.2599C10.482 18.5221 10.2873 18.7507 10.125 18.9389C9.96272 18.7507 9.768 18.5221 9.54892 18.2599C8.88786 17.4685 8.00799 16.3745 7.12965 15.1603C6.24947 13.9437 5.38096 12.6203 4.73536 11.3691C4.07837 10.0957 3.7 8.98613 3.7 8.17095C3.7 4.59289 6.58081 1.7 10.125 1.7C13.6692 1.7 16.55 4.59289 16.55 8.17095Z"
          stroke="#333333" stroke-width="1.4"/>
    <path d="M12.1535 7.75391C12.1535 8.88818 11.2411 9.8 10.125 9.8C9.00891 9.8 8.09648 8.88818 8.09648 7.75391C8.09648 6.61963 9.00891 5.70781 10.125 5.70781C11.2411 5.70781 12.1535 6.61963 12.1535 7.75391Z"
          stroke="#333333" stroke-width="1.4"/>
</svg>
